<?xml version="1.0" standalone="no"?>
<!DOCTYPE svg PUBLIC "-//W3C//DTD SVG 20010904//EN"
 "http://www.w3.org/TR/2001/REC-SVG-20010904/DTD/svg10.dtd">
<svg version="1.0" xmlns="http://www.w3.org/2000/svg"
 width="500.000000pt" height="500.000000pt" viewBox="0 0 500.000000 500.000000"
 preserveAspectRatio="xMidYMid meet">

<g transform="translate(0.000000,500.000000) scale(0.100000,-0.100000)"
fill="#000000" stroke="none">
<path d="M2265 3453 c-94 -12 -201 -59 -290 -127 -22 -17 -84 -77 -137 -133
-108 -114 -124 -148 -148 -306 -25 -168 37 -458 119 -558 30 -36 198 -154 265
-186 31 -14 45 -15 119 -4 164 22 230 60 357 200 70 79 160 218 160 249 0 9
10 50 22 90 l21 74 -27 56 -28 56 27 23 c29 26 71 29 141 12 78 -20 88 -49
114 -334 l11 -120 -35 -117 c-42 -137 -43 -147 -13 -150 74 -5 126 23 210 111
102 107 121 176 131 476 6 167 5 172 -24 275 -35 122 -39 128 -215 245 -242
161 -289 175 -575 173 -96 0 -188 -3 -205 -5z m328 -483 c53 -23 75 -36 68
-43 -7 -7 -24 -4 -52 8 -67 31 -138 25 -207 -17 -31 -20 -66 -38 -77 -42 -11
-3 -49 -42 -84 -86 -35 -45 -65 -79 -67 -77 -3 2 5 45 17 95 23 100 32 112
143 174 45 26 58 28 116 24 42 -2 92 -15 143 -36z"/>
<path d="M1230 2320 l0 -80 30 0 c34 0 40 15 10 23 -24 6 -28 47 -5 47 8 0 15
5 15 10 0 6 -7 10 -15 10 -9 0 -15 9 -15 25 0 18 5 25 20 25 11 0 20 5 20 10
0 6 -13 10 -30 10 l-30 0 0 -80z"/>
<path d="M1337 2394 c-15 -15 -6 -49 19 -75 18 -19 24 -33 20 -46 -7 -17 -8
-17 -21 0 -9 13 -15 15 -20 7 -11 -18 20 -43 44 -35 30 9 27 52 -5 86 -29 30
-24 54 8 43 15 -4 19 -2 16 7 -5 15 -49 24 -61 13z"/>
<path d="M1440 2391 c0 -6 5 -13 10 -16 6 -3 10 -35 10 -71 0 -36 4 -64 10
-64 6 0 10 28 10 65 0 49 4 67 15 71 27 11 16 24 -20 24 -19 0 -35 -4 -35 -9z"/>
<path d="M3500 2379 c-15 -26 -3 -40 14 -16 35 47 35 -15 1 -65 -33 -49 -32
-58 10 -58 19 0 35 5 35 10 0 6 -7 10 -15 10 -20 0 -19 5 6 56 16 34 18 47 9
63 -14 27 -46 27 -60 0z"/>
<path d="M3610 2381 c-25 -47 -5 -141 30 -141 22 0 40 34 40 76 0 55 -14 84
-40 84 -11 0 -24 -9 -30 -19z m40 -57 c0 -40 -4 -55 -12 -52 -15 5 -22 50 -14
84 11 43 26 25 26 -32z"/>
<path d="M3720 2379 c-15 -26 -3 -40 14 -16 35 47 35 -15 1 -65 -33 -49 -32
-58 10 -58 19 0 35 5 35 10 0 6 -7 10 -15 10 -20 0 -19 5 6 56 16 34 18 47 9
63 -14 27 -46 27 -60 0z"/>
<path d="M3841 2349 c-26 -63 -26 -69 -2 -69 11 0 21 -9 25 -22 6 -23 7 -23
22 6 11 20 13 31 5 39 -6 6 -11 30 -11 54 0 24 -4 43 -9 43 -4 0 -18 -23 -30
-51z m16 -41 c-3 -8 -6 -5 -6 6 -1 11 2 17 5 13 3 -3 4 -12 1 -19z"/>
<path d="M1633 2010 c-32 -19 -58 -73 -69 -138 -7 -42 12 -181 29 -219 21 -47
127 -85 191 -69 25 6 56 59 56 95 0 30 -35 61 -70 61 -26 0 -30 -4 -30 -27 0
-16 -5 -35 -10 -43 -9 -13 -13 -12 -30 8 -37 45 -39 221 -2 271 27 37 40 36
56 -3 11 -28 21 -36 40 -36 52 0 41 77 -14 100 -48 20 -114 20 -147 0z"/>
<path d="M1900 2015 c-6 -7 -15 -42 -20 -77 -11 -75 -13 -299 -2 -314 13 -19
56 -44 75 -44 18 0 19 7 15 90 -3 67 -1 90 8 90 7 0 19 3 28 6 13 5 16 -6 18
-67 3 -64 6 -74 28 -90 14 -10 34 -19 45 -21 18 -3 21 6 32 97 6 55 15 143 18
196 l7 96 -27 21 c-15 12 -33 22 -41 22 -16 0 -30 -47 -39 -125 -7 -63 -16
-75 -52 -75 -22 0 -23 3 -23 89 0 59 -4 92 -12 98 -24 19 -47 22 -58 8z"/>
<path d="M2870 2023 c-69 -6 -74 -9 -56 -35 19 -26 20 -88 6 -240 -11 -118 -4
-154 32 -163 36 -9 211 8 215 21 2 6 -8 26 -23 43 -25 30 -29 31 -75 25 l-49
-7 0 51 c0 53 8 64 50 70 13 2 27 5 29 8 10 10 -20 53 -41 59 -29 10 -38 23
-38 58 l0 27 80 0 c58 0 80 4 80 13 -1 24 -41 59 -77 68 -38 9 -48 9 -133 2z"/>
<path d="M3184 2016 c-52 -23 -77 -63 -71 -119 5 -60 26 -83 94 -104 62 -19
103 -60 103 -101 0 -44 -14 -58 -44 -44 -20 9 -26 19 -26 42 0 43 -31 70 -80
70 -34 0 -41 -4 -46 -25 -9 -37 24 -95 68 -118 21 -10 67 -24 102 -30 56 -9
70 -9 100 6 43 20 53 50 36 115 -15 62 -42 89 -107 108 -57 17 -83 43 -83 84
0 32 18 56 47 64 27 9 36 -5 23 -38 -9 -23 -6 -28 34 -51 60 -35 82 -33 96 10
21 63 -14 107 -101 130 -67 18 -105 18 -145 1z"/>
<path d="M2187 1823 c4 -213 5 -216 60 -232 54 -16 56 -9 51 172 -5 149 -7
169 -28 202 -19 32 -53 55 -79 55 -4 0 -6 -89 -4 -197z"/>
<path d="M2336 1968 c-3 -29 -6 -118 -6 -198 l1 -145 27 -20 c24 -18 40 -20
147 -17 66 2 122 5 124 7 2 2 -5 24 -14 49 l-18 46 -83 0 -84 0 0 38 c0 20 -3
87 -6 147 -7 118 -18 145 -59 145 -19 0 -23 -7 -29 -52z"/>
<path d="M2660 2013 c-3 -54 2 -377 6 -387 7 -18 78 -47 97 -41 10 4 12 34 10
133 -5 206 -10 231 -48 269 -30 30 -64 44 -65 26z"/>
<path d="M3410 1410 c-58 -4 -397 -8 -755 -9 -462 -1 -715 -5 -875 -16 -124
-8 -268 -16 -320 -18 -55 -2 -30 -3 60 -4 85 -1 207 3 270 8 63 6 489 14 945
19 470 5 847 12 870 18 38 9 37 10 -25 9 -36 0 -112 -4 -170 -7z"/>
<path d="M1520 1125 c0 -43 4 -75 10 -75 6 0 10 14 10 30 0 20 5 30 15 30 10
0 15 -10 15 -30 0 -16 5 -30 10 -30 6 0 10 32 10 75 0 43 -4 75 -10 75 -5 0
-10 -13 -10 -30 0 -20 -5 -30 -15 -30 -10 0 -15 10 -15 30 0 17 -4 30 -10 30
-6 0 -10 -32 -10 -75z"/>
<path d="M1631 1181 c-15 -27 -14 -94 2 -115 10 -13 20 -16 36 -11 20 6 22 12
19 73 -3 60 -5 67 -25 70 -14 2 -26 -4 -32 -17z m37 -51 c-4 -60 -22 -71 -26
-16 -4 43 2 66 18 66 7 0 10 -19 8 -50z"/>
<path d="M1730 1125 c0 -43 4 -75 10 -75 6 0 10 15 11 33 l1 32 10 -32 c12
-36 28 -44 28 -14 0 11 5 23 10 26 6 4 10 -5 10 -19 0 -14 5 -26 10 -26 6 0
10 32 10 75 0 60 -3 75 -15 75 -10 0 -17 -14 -21 -40 -4 -22 -10 -40 -14 -40
-5 0 -11 18 -15 40 -4 25 -12 40 -21 40 -11 0 -14 -17 -14 -75z"/>
<path d="M1860 1125 l0 -75 30 0 c17 0 30 5 30 10 0 6 -7 10 -15 10 -24 0 -31
31 -10 43 18 9 18 10 0 23 -22 16 -13 44 15 44 12 0 18 5 15 10 -3 6 -19 10
-36 10 l-29 0 0 -75z"/>
<path d="M2027 1193 c-4 -3 -7 -32 -7 -63 0 -65 18 -92 48 -73 21 12 29 108
11 129 -12 15 -41 19 -52 7z m38 -66 c0 -65 -19 -64 -23 2 -2 40 0 52 10 49 8
-3 13 -22 13 -51z"/>
<path d="M2120 1125 c0 -43 4 -75 10 -75 6 0 10 14 10 30 0 18 6 33 15 36 8 4
15 10 15 15 0 5 -7 9 -15 9 -8 0 -15 9 -15 20 0 13 7 20 20 20 11 0 20 5 20
10 0 6 -13 10 -30 10 l-30 0 0 -75z"/>
<path d="M2280 1190 c0 -5 5 -10 10 -10 6 0 10 -28 10 -65 0 -37 4 -65 10 -65
6 0 10 27 10 60 0 45 4 62 15 66 8 4 12 10 9 15 -7 12 -64 11 -64 -1z"/>
<path d="M2380 1125 c0 -43 4 -75 10 -75 6 0 10 14 10 31 0 38 24 35 28 -4 6
-51 22 -16 22 48 0 64 -16 99 -22 48 -4 -39 -28 -42 -28 -4 0 17 -4 31 -10 31
-6 0 -10 -32 -10 -75z"/>
<path d="M2480 1125 l0 -75 30 0 c17 0 30 5 30 10 0 6 -9 10 -20 10 -25 0 -27
35 -2 49 16 9 16 10 0 16 -25 10 -23 45 2 45 11 0 20 5 20 10 0 6 -13 10 -30
10 l-30 0 0 -75z"/>
<path d="M2640 1125 c0 -72 1 -75 24 -75 34 0 44 18 44 75 -1 58 -11 75 -44
75 -23 0 -24 -3 -24 -75z m45 35 c0 -7 -6 -15 -12 -17 -8 -3 -13 4 -13 17 0
13 5 20 13 18 6 -3 12 -11 12 -18z m0 -65 c0 -10 -6 -20 -12 -22 -8 -3 -13 5
-13 22 0 17 5 25 13 23 6 -3 12 -13 12 -23z"/>
<path d="M2740 1125 l0 -75 30 0 c17 0 30 5 30 10 0 6 -7 10 -15 10 -24 0 -31
31 -10 43 18 9 18 10 0 23 -22 16 -13 44 15 44 12 0 18 5 15 10 -3 6 -19 10
-36 10 l-29 0 0 -75z"/>
<path d="M2847 1193 c-15 -14 -6 -48 19 -74 27 -28 25 -61 -2 -38 -21 18 -31
1 -11 -19 13 -13 21 -14 35 -6 26 17 25 38 -3 72 -33 40 -32 54 3 46 24 -7 26
-6 13 9 -14 17 -42 22 -54 10z"/>
<path d="M2940 1190 c0 -5 5 -10 10 -10 6 0 10 -26 10 -59 0 -33 5 -63 10 -66
6 -4 10 17 10 55 0 45 4 62 15 66 27 11 16 24 -20 24 -19 0 -35 -4 -35 -10z"/>
<path d="M3112 1188 c-17 -17 -16 -113 3 -128 17 -14 43 -7 51 15 9 23 -6 33
-17 12 -16 -27 -29 -10 -29 38 0 48 13 65 29 38 5 -10 13 -14 17 -10 10 10 -9
41 -27 45 -8 1 -20 -3 -27 -10z"/>
<path d="M3210 1125 c0 -43 4 -75 10 -75 6 0 10 14 10 31 0 38 24 35 28 -4 6
-51 22 -16 22 48 0 64 -16 99 -22 48 -4 -39 -28 -42 -28 -4 0 17 -4 31 -10 31
-6 0 -10 -32 -10 -75z"/>
<path d="M3310 1125 c0 -43 4 -75 10 -75 6 0 10 32 10 75 0 43 -4 75 -10 75
-6 0 -10 -32 -10 -75z"/>
<path d="M3370 1126 c0 -74 1 -76 25 -76 14 0 25 5 25 10 0 6 -7 10 -15 10
-12 0 -15 13 -15 59 0 33 -4 63 -10 66 -6 4 -10 -22 -10 -69z"/>
<path d="M3460 1125 c0 -43 4 -75 10 -75 6 0 10 32 10 75 0 43 -4 75 -10 75
-6 0 -10 -32 -10 -75z"/>
</g>
</svg>
